<svg width="482" height="385" xmlns="http://www.w3.org/2000/svg" xmlns:xlink="http://www.w3.org/1999/xlink" overflow="hidden"><defs><clipPath id="clip0"><rect x="711" y="246" width="482" height="385"/></clipPath></defs><g clip-path="url(#clip0)" transform="translate(-711 -246)"><path d="M819.5 500.5 948.797 500.5 966.5 625.5 853.488 535.961Z" stroke="#FDB70D" stroke-width="5.33333" stroke-linecap="round" stroke-linejoin="round" stroke-miterlimit="10" fill="#FFFFFF" fill-rule="evenodd"/><path d="M967.568 628.5 1163.5 603.5 1012.17 483 989.116 466.5 936.5 529.5 967.568 628.5Z" stroke="#FDB70D" stroke-width="5.33333" stroke-linecap="round" stroke-linejoin="round" stroke-miterlimit="10" fill="#FFFFFF" fill-rule="evenodd"/><path d="M928.5 291.927 935.824 280.989 1186.5 249.5 1164.86 272.371 937.488 308.5 928.5 291.927Z" stroke="#FDB70D" stroke-width="5.33333" stroke-linecap="round" stroke-linejoin="round" stroke-miterlimit="10" fill="#FFFFFF" fill-rule="evenodd"/><path d="M734.123 327.5 740.5 377.053 714.5 390.5 734.123 327.5Z" stroke="#FDB70D" stroke-width="5.33333" stroke-linecap="round" stroke-linejoin="round" stroke-miterlimit="10" fill="#FFFFFF" fill-rule="evenodd"/><path d="M734.5 326.5 822.905 333.514 862.5 366.327 792.523 453.496 749.94 455.5 734.5 326.5Z" stroke="#FDB70D" stroke-width="5.33333" stroke-linecap="round" stroke-linejoin="round" stroke-miterlimit="10" fill="#FFFFFF" fill-rule="evenodd"/><path d="M795.5 452.5 920.257 296.5 937.5 443.608 795.5 452.5Z" stroke="#FDB70D" stroke-width="5.33333" stroke-linecap="round" stroke-linejoin="round" stroke-miterlimit="10" fill="#FFFFFF" fill-rule="evenodd"/><path d="M749.5 455.5 935.5 443.5" stroke="#FDB70D" stroke-width="5.33333" stroke-linecap="round" stroke-linejoin="round" stroke-miterlimit="10" fill="#FFFFFF" fill-rule="evenodd"/><path d="M749.5 454.591 937.5 444.5 857.825 540.5 749.5 454.591Z" stroke="#FDB70D" stroke-width="5.33333" stroke-linecap="round" stroke-linejoin="round" stroke-miterlimit="10" fill="#FFFFFF" fill-rule="evenodd"/><path d="M918.5 290 1189.5 259.5 954.933 542.5 918.5 290Z" stroke="#FDB70D" stroke-width="5.33333" stroke-linecap="round" stroke-linejoin="round" stroke-miterlimit="10" fill="#FFFFFF" fill-rule="evenodd"/></g></svg>